HIERARCHY
ROOT Hips
{
	OFFSET -14.64140 90.27770 -84.91600
	CHANNELS 6 Xposition Yposition Zposition Zrotation Xrotation Yrotation
	JOINT Spine
	{
		OFFSET 0.00000 13.20850 -1.60436
		CHANNELS 3 Zrotation Xrotation Yrotation
		JOINT Spine1
		{
			OFFSET 0.00000 8.61716 0.00000
			CHANNELS 3 Zrotation Xrotation Yrotation
			JOINT Spine2
			{
				OFFSET 0.00000 8.61717 0.00000
				CHANNELS 3 Zrotation Xrotation Yrotation
				JOINT Spine3
				{
					OFFSET 0.00000 8.61717 0.00000
					CHANNELS 3 Zrotation Xrotation Yrotation
					JOINT Neck
					{
						OFFSET 0.00000 11.07920 1.10792
						CHANNELS 3 Zrotation Xrotation Yrotation
						JOINT Neck1
						{
							OFFSET 0.00000 7.08032 0.00000
							CHANNELS 3 Zrotation Xrotation Yrotation
							JOINT Head
							{
								OFFSET 0.00000 7.08031 0.00000
								CHANNELS 3 Zrotation Xrotation Yrotation
								End site
								{
									OFFSET 0.00000 0.00000 0.00000
								}
							}
						}
					}
					JOINT RightShoulder
					{
						OFFSET -0.01000 7.91373 5.19711
						CHANNELS 3 Zrotation Xrotation Yrotation
						JOINT RightArm
						{
							OFFSET -18.41580 0.00000 0.00000
							CHANNELS 3 Zrotation Xrotation Yrotation
							JOINT RightForeArm
							{
								OFFSET -29.11090 0.00000 0.00000
								CHANNELS 3 Zrotation Xrotation Yrotation
								JOINT RightHand
								{
									OFFSET -24.65040 0.00000 0.00000
									CHANNELS 3 Zrotation Xrotation Yrotation
									JOINT RightHandThumb1
									{
										OFFSET -5.35114 -0.85590 3.97906
										CHANNELS 3 Zrotation Xrotation Yrotation
										JOINT RightHandThumb2
										{
											OFFSET -4.52789 0.00000 0.00000
											CHANNELS 3 Zrotation Xrotation Yrotation
											JOINT RightHandThumb3
											{
												OFFSET -2.46976 0.00000 0.00000
												CHANNELS 3 Zrotation Xrotation Yrotation
												End site
												{
													OFFSET 0.00000 0.00000 0.00000
												}
											}
										}
									}
									JOINT RightHandIndex1
									{
										OFFSET -14.26970 0.00000 2.88139
										CHANNELS 3 Zrotation Xrotation Yrotation
										JOINT RightHandIndex2
										{
											OFFSET -5.48836 0.00000 0.00000
											CHANNELS 3 Zrotation Xrotation Yrotation
											JOINT RightHandIndex3
											{
												OFFSET -3.01859 0.00000 0.00000
												CHANNELS 3 Zrotation Xrotation Yrotation
												End site
												{
													OFFSET 0.00000 0.00000 0.00000
												}
											}
										}
									}
									JOINT RightHandMiddle1
									{
										OFFSET -14.26970 0.00000 -0.09147
										CHANNELS 3 Zrotation Xrotation Yrotation
										JOINT RightHandMiddle2
										{
											OFFSET -6.17441 0.00000 0.00000
											CHANNELS 3 Zrotation Xrotation Yrotation
											JOINT RightHandMiddle3
											{
												OFFSET -3.56743 0.00000 0.00000
												CHANNELS 3 Zrotation Xrotation Yrotation
												End site
												{
													OFFSET 0.00000 0.00000 0.00000
												}
											}
										}
									}
									JOINT RightHandRing1
									{
										OFFSET -12.69180 0.00000 -3.06433
										CHANNELS 3 Zrotation Xrotation Yrotation
										JOINT RightHandRing2
										{
											OFFSET -5.62556 0.00000 0.00000
											CHANNELS 3 Zrotation Xrotation Yrotation
											JOINT RightHandRing3
											{
												OFFSET -3.56744 0.00000 0.00000
												CHANNELS 3 Zrotation Xrotation Yrotation
												End site
												{
													OFFSET 0.00000 0.00000 0.00000
												}
											}
										}
									}
									JOINT RightHandPinky1
									{
										OFFSET -11.11390 0.00000 -6.03719
										CHANNELS 3 Zrotation Xrotation Yrotation
										JOINT RightHandPinky2
										{
											OFFSET -4.52789 0.00000 0.00000
											CHANNELS 3 Zrotation Xrotation Yrotation
											JOINT RightHandPinky3
											{
												OFFSET -2.46976 0.00000 0.00000
												CHANNELS 3 Zrotation Xrotation Yrotation
												End site
												{
													OFFSET 0.00000 0.00000 0.00000
												}
											}
										}
									}
								}
							}
						}
					}
					JOINT LeftShoulder
					{
						OFFSET 0.01000 7.91373 5.19711
						CHANNELS 3 Zrotation Xrotation Yrotation
						JOINT LeftArm
						{
							OFFSET 18.41580 0.00000 0.00000
							CHANNELS 3 Zrotation Xrotation Yrotation
							JOINT LeftForeArm
							{
								OFFSET 29.11090 0.00000 0.00000
								CHANNELS 3 Zrotation Xrotation Yrotation
								JOINT LeftHand
								{
									OFFSET 24.65040 0.00000 0.00000
									CHANNELS 3 Zrotation Xrotation Yrotation
									JOINT LeftHandThumb1
									{
										OFFSET 5.35114 -0.85590 3.97906
										CHANNELS 3 Zrotation Xrotation Yrotation
										JOINT LeftHandThumb2
										{
											OFFSET 4.52789 0.00000 0.00000
											CHANNELS 3 Zrotation Xrotation Yrotation
											JOINT LeftHandThumb3
											{
												OFFSET 2.46977 0.00000 0.00000
												CHANNELS 3 Zrotation Xrotation Yrotation
												End site
												{
													OFFSET 0.00000 0.00000 0.00000
												}
											}
										}
									}
									JOINT LeftHandIndex1
									{
										OFFSET 14.26970 0.00000 2.88139
										CHANNELS 3 Zrotation Xrotation Yrotation
										JOINT LeftHandIndex2
										{
											OFFSET 5.48836 0.00000 0.00000
											CHANNELS 3 Zrotation Xrotation Yrotation
											JOINT LeftHandIndex3
											{
												OFFSET 3.01859 0.00000 0.00000
												CHANNELS 3 Zrotation Xrotation Yrotation
												End site
												{
													OFFSET 0.00000 0.00000 0.00000
												}
											}
										}
									}
									JOINT LeftHandMiddle1
									{
										OFFSET 14.26970 0.00000 -0.09147
										CHANNELS 3 Zrotation Xrotation Yrotation
										JOINT LeftHandMiddle2
										{
											OFFSET 6.17440 0.00000 0.00000
											CHANNELS 3 Zrotation Xrotation Yrotation
											JOINT LeftHandMiddle3
											{
												OFFSET 3.56744 0.00000 0.00000
												CHANNELS 3 Zrotation Xrotation Yrotation
												End site
												{
													OFFSET 0.00000 0.00000 0.00000
												}
											}
										}
									}
									JOINT LeftHandRing1
									{
										OFFSET 12.69180 0.00000 -3.06433
										CHANNELS 3 Zrotation Xrotation Yrotation
										JOINT LeftHandRing2
										{
											OFFSET 5.62556 0.00000 0.00000
											CHANNELS 3 Zrotation Xrotation Yrotation
											JOINT LeftHandRing3
											{
												OFFSET 3.56744 0.00000 0.00000
												CHANNELS 3 Zrotation Xrotation Yrotation
												End site
												{
													OFFSET 0.00000 0.00000 0.00000
												}
											}
										}
									}
									JOINT LeftHandPinky1
									{
										OFFSET 11.11390 0.00000 -6.03719
										CHANNELS 3 Zrotation Xrotation Yrotation
										JOINT LeftHandPinky2
										{
											OFFSET 4.52789 0.00000 0.00000
											CHANNELS 3 Zrotation Xrotation Yrotation
											JOINT LeftHandPinky3
											{
												OFFSET 2.46976 0.00000 0.00000
												CHANNELS 3 Zrotation Xrotation Yrotation
												End site
												{
													OFFSET 0.00000 0.00000 0.00000
												}
											}
										}
									}
								}
							}
						}
					}
					JOINT pCube4
					{
						OFFSET 0.00000 10.91090 1.10792
						CHANNELS 3 Zrotation Xrotation Yrotation
						End site
						{
							OFFSET 0.00000 0.00000 0.00000
						}
					}
				}
			}
		}
	}
	JOINT RightUpLeg
	{
		OFFSET -9.98441 0.00000 0.00000
		CHANNELS 3 Zrotation Xrotation Yrotation
		JOINT RightLeg
		{
			OFFSET 0.00000 -42.11790 0.00000
			CHANNELS 3 Zrotation Xrotation Yrotation
			JOINT RightFoot
			{
				OFFSET 0.00000 -45.00020 -0.00001
				CHANNELS 3 Zrotation Xrotation Yrotation
				JOINT RightForeFoot
				{
					OFFSET 0.00000 -3.74820 0.00000
					CHANNELS 3 Zrotation Xrotation Yrotation
					JOINT RightToeBase
					{
						OFFSET 0.00000 0.06325 14.43120
						CHANNELS 3 Zrotation Xrotation Yrotation
						End site
						{
							OFFSET 0.00000 0.00000 0.00000
						}
					}
				}
			}
		}
	}
	JOINT LeftUpLeg
	{
		OFFSET 9.98441 0.00000 0.00000
		CHANNELS 3 Zrotation Xrotation Yrotation
		JOINT LeftLeg
		{
			OFFSET 0.00000 -42.11800 0.00000
			CHANNELS 3 Zrotation Xrotation Yrotation
			JOINT LeftFoot
			{
				OFFSET 0.00000 -45.00070 0.00000
				CHANNELS 3 Zrotation Xrotation Yrotation
				JOINT LeftForeFoot
				{
					OFFSET 0.00000 -3.74824 0.00000
					CHANNELS 3 Zrotation Xrotation Yrotation
					JOINT LeftToeBase
					{
						OFFSET 0.00000 0.06325 14.43110
						CHANNELS 3 Zrotation Xrotation Yrotation
						End site
						{
							OFFSET 0.00000 0.00000 0.00000
						}
					}
				}
			}
		}
	}
}
MOTION
Frames: 4
Frame Time: 0.050000
0.00036309919353027387 0.048030298786088145 -0.031754686097441115 0.037878025910819554 0.036907282213941274 -0.020135993926392166 -2.242901745128716 0.9908671088405874 -0.9002953120690803 -1.0985283676162485 3.8913651210468547 0.3765649236364298 -1.0977931541338863 -1.972631548630645 -1.9307689325505901 0.015441392423886754 0.5553497971497658 -0.8778685268074078 -1.035115217529797 13.40661359605543 2.6304298328534537 0.08240099602509918 -0.14904382678536346 5.609981266570528 -0.6990410197219955 -15.353749010316571 0.45209908094734774 -4.973221851888496 1.726463925363344 -15.972759704620696 73.04028277159705 16.631862135774792 -4.729246777013009 4.937254900261186 -1.921339601119923 43.06936481420901 20.247443627695148 -0.1323427492893328 -2.5135646247089305 4.524488011614225 -0.126027375696923 -1.5458008257943634 0.03340260827605422 -0.0376207131021736 -56.27026204230685 0.04091462364551066 0.02458496539408616 -56.20149518423422 -38.75961654777462 0.013161049588884808 0.018725445269293685 -0.028752566619174868 0.04691175794418844 0.037670110093907125 0.02803562363928908 -0.01871274413993812 -0.037799524679432706 -36.73537115663333 0.02064607871835458 -0.004821538572395189 0.028109323671645925 0.032343345479140195 -0.010213742910960794 -0.0191478799511648 0.01555032904281019 -0.023655753282974496 -19.753225613838005 -0.01824986315815656 0.04756947081474331 -0.028050831640836105 -0.010308150652065163 -0.013147919495115614 -0.014086099087445974 0.012062395281530946 -0.035978583307048374 24.068481464737978 -0.006080793284058915 -0.029402077071803367 28.832830727567348 0.026911140506414296 -0.03755259099010726 28.89277322675432 -0.027778484366120095 0.025761713240374642 8.250725978047 1.693697394561802 14.210451695676719 -69.11375952111332 18.460965121870686 -10.87104188411837 -1.6365352059213463 -17.647000617112056 -61.851768316589364 -6.522532900884832 -0.5177638286170431 1.4191786168587543 -0.5021027289977061 0.01849521185560754 -8.159752767576643 -0.0045184487132580295 0.0033600904946235943 44.596462791749 -0.011680167348073324 -0.03440030023278287 44.5939425189055 12.43282911036656 0.03519341259007545 0.0028574239000181646 0.0028338341818477824 -0.02540594079866111 -0.010918771681934877 0.012834532448154391 0.003645499061804434 0.0019368593986074977 11.150378151130568 0.030161283178852548 -0.03221239276225171 -0.03243767972036093 -0.02382247055938432 0.018471019874007278 -0.04030685708920101 -0.04017318698578578 -0.030154851932987392 4.79872079566614 0.02932721292974564 0.001622864982677969 0.04781455057719169 -0.04072596005225495 0.0242921884898456 -0.005638128724965643 -0.024811655472942368 0.040735155885612766 -5.582684458476542 0.03371684517433308 0.01990675543951081 -6.7287740955599356 0.037581027691238146 0.0004533705699929753 -6.7553254051712655 0.03707703881649417 0.024492482946271644 0.028842502867346173 0.0009225020534458121 -0.02342985746079137 7.998253712446715 3.5253833538875283 -19.231653119922527 -0.007984504693502254 10.362332532643563 0.03705436810906669 -5.578343481431679 -15.651650799208598 3.235820662146947 -0.023375307072500774 0.0344882119376584 0.0269381982588618 -0.021349327277154835 4.660483695234003 -0.043384107429284544 12.472655472238971 -8.265064989833903 6.921521585731957 0.009291832843827359 46.381319893923006 0.01105091599803777 -4.2894150676638905 -14.71822430662494 -3.838445196689655 -0.009784676021461729 -0.008481128857472429 0.015346749629306924 -0.014793805907782242 -10.736580998497478 0.011371137537289454 
0.03734286768730663 -0.023347656494074748 -0.04351924703481458 -0.024834199740796797 -0.035492566009326085 0.015224855127313634 -2.201169140345901 1.0456673260729 -0.813941157858588 -1.17085575504686 3.904535251206846 0.37509235267604996 -1.1390710278099263 -1.9341675237896825 -1.837006930217235 -0.02871112741526139 0.5157341157863111 -0.8445015187857401 -1.1109075512544087 13.220289905945677 2.8505635128081406 -0.00820875453850992 -0.24189032636072869 6.06276013746225 -0.7454297998292373 -15.54214578984266 0.5335353682891752 -4.697089074432958 1.5932813861361188 -16.047052616333108 73.12160735096568 17.243257220272536 -5.60761794316442 5.235966142690343 -2.0303047143493926 42.29952289436475 20.26060452970295 -0.10826679615150232 -2.682317759154296 4.486135342269497 -0.09979928870520974 -1.5544552858874399 0.011247450839223303 0.047623553189383994 -56.24409226694953 -0.016627350230959778 0.024087704857701522 -56.211651801110825 -38.775355052971605 -0.03858308629610502 0.04422577685064884 -0.026828389007915204 -0.01989187511984835 -0.039531377793104644 -0.018129323594405996 -0.028755074100764503 0.025497344474356944 -36.674021049544876 0.024792564019068892 -0.037784853593313114 0.04491314014235251 -0.030896749855264874 0.04841471416837021 0.024909947246390732 -0.006222608748499296 0.04396617204610489 -19.76029772492783 -0.021588998620434063 0.03386502303079117 0.01258128662502924 -0.005876032957534268 0.032572561093453495 0.03257150067273893 -0.004097598152034117 -0.008840787595691258 24.0481475254928 0.027694448435815314 -0.012641065007868529 28.848496218073848 0.02055675179880919 -0.04966743148139962 28.88511920546313 0.019510245820648465 -0.02193872690937714 7.875663644754277 1.6446560593278423 14.297900115114546 -70.20166976575668 19.30438866497656 -8.76776225788466 -2.067014319572534 -17.326406870114766 -61.8721366681565 -7.068223027747628 -0.7138525356282349 1.5620888457461042 -0.4699802165035745 0.06768779035957365 -8.08258406269677 -0.029383601669747912 -0.02383350366534232 44.58656836736744 -0.043803859660101564 0.035259695508137956 44.58081903472702 12.44388955300443 -0.04307921848477556 -0.037752703166494775 0.0066042840154757485 0.04375169304650626 0.017868324711602008 0.01947231446084003 0.034272250695163445 0.040744373339108825 11.098515139824105 0.019750417070554666 0.00037054495362350074 -0.019487656856322217 -0.03133254870529417 -0.006333907449090133 0.001438441465701821 0.008117786063686995 -0.047075320574593495 4.774301624056964 -0.03930071784336999 0.0415484433271338 -0.008645589492491 -0.0355735869092908 -0.014283309350311156 0.03564216617740398 -0.04423131441961614 0.0037492572431128 -5.551611904910283 -0.042190869389576835 0.017741161323448325 -6.672810080281101 -0.014156710865079056 -0.021355332888418847 -6.71125674097167 0.0031904862601986115 0.013414498419748202 -0.027077777075094095 0.013587236249100713 0.01763787925150662 8.021108348779226 3.528576871735323 -19.267794706000274 -0.007938013380880156 10.385583561274528 -0.006499929209840206 -5.629120922118028 -15.632466144764116 3.2053302735516556 0.031033524909689303 0.00739550625100815 -0.04758763541758502 0.030680699241003438 4.707694961797084 0.014946519153907187 12.469848200191253 -8.192234876529287 6.849561156547718 0.0033778059282531595 46.34715181586155 0.037704251080645984 -4.35809284060646 -14.74733336652811 -3.7880577867700693 0.04609731672710775 -0.00012788346893600645 0.0223049546706652 0.04043871690935465 -10.777045220430962 0.02635560326706872 
-0.010392453269276543 0.002822915201322481 -0.030739220424025285 0.0311697301442231 -0.01936095289801142 -0.009413827742384188 -2.1426634080563183 1.0806156434870604 -0.8839407978663224 -1.1396580244986076 3.914161935783554 0.4002648670509453 -1.1735140255137522 -1.8363010945366038 -1.7818142420923708 -0.05385388366611885 0.5831609126517787 -0.8572983701637797 -1.2075709279643159 13.137994322743758 3.035800067929408 -0.007771911546261025 -0.2895549665164973 6.499935234505257 -0.8805225999118562 -15.567283410152887 0.5139818241974435 -4.49558817200572 1.588624549663555 -16.141384043840464 73.08143703757159 17.99832937306569 -6.258462640497907 4.906129432410711 -2.147684702885528 41.7490506340076 20.132586136928953 -0.13965824327622722 -2.759420412985988 4.537496091297074 -0.1394439020263141 -1.5704088170004646 -0.008370167653572735 -0.016829852845034462 -56.188829128196716 -0.01322626046261752 0.020663790438545517 -56.27067160918919 -38.75211684826485 0.045128444391130326 -0.038528157542062534 0.03459381214643143 -0.007018467350230005 0.001970193346787889 -0.036489574738505295 -0.026630523426961195 -0.039106877871377545 -36.73356257377199 -0.003410073573620954 0.009594675455534513 0.01467213709009686 0.019402305527699594 -0.00696949134408951 0.021333407550208967 0.043145468119785785 0.020240433782446186 -19.761920592489627 -0.013773288936700032 -0.02254574830823611 -0.03651985531186001 0.0008406511170683308 0.001918930729373315 -0.02314714299626438 0.02136763175405104 0.02630511448176234 24.05597040729484 -0.014058720492995693 -0.020655358511998338 28.83002992979419 0.025679088591220724 0.030138567382637416 28.90826474762982 0.028488279500848573 -0.006783404421882457 7.807265834002444 1.6532325801857086 14.478848346709915 -70.41767384601138 19.711828879793742 -8.320651027098723 -0.11543026589660901 -18.041126896309258 -64.37234110537446 -6.827813917861536 -1.0862741608001913 1.5754102821629132 -0.45347700426473336 0.061213761487841356 -8.108369953353309 -0.03606712380689518 -0.015747147138684872 44.538872074660944 -0.010505721832096299 0.03552990495788156 44.54390350472489 12.48107937567253 0.029907763450640806 -0.012541846694325258 0.024331923909390783 0.03132403787246389 0.038325872090531274 0.01990787164454385 0.010424389370197908 0.01045663161057979 11.152026470901495 -0.007480869584863076 -0.008126363567543109 -0.02049348313966706 -0.0469233365968454 -0.0399238000551919 0.007638052598862169 -0.027097111173961286 -0.03787124589436436 4.815336123927206 -0.013313723736602702 -0.017602400149695198 -0.04649067147352282 0.03654553210970046 -0.034429722893487426 -0.03620940635145804 0.00847385392407347 0.012872492865488173 -5.551131901445676 0.043734209352548285 0.04526350693093989 -6.723337086195088 0.010689054892581467 -0.04512318307839996 -6.689740239638835 -0.02615079391087007 0.04574019662447617 -0.01308885853492027 -0.0060330881965164635 -0.040013646225427676 8.00700726735362 3.491978382124014 -19.169695616956908 -0.005669726994244375 10.381793670251852 -0.008595118311759336 -5.610090489134965 -15.652985230114508 3.204878967860107 0.01717409472706955 -6.835279125485019e-05 -0.025304730377797104 -0.04143402117438052 4.670293187341032 -0.019985308281300462 12.454234771105934 -8.254211062072548 6.9054599981160685 -0.0071140108678624326 46.427462622884455 0.045181357524854665 -4.3162888402483395 -14.743453063586701 -3.8019526076845853 0.010575927479102557 -0.018890032486630046 -0.03628156080072298 0.04985348566888074 -10.712362281114608 -0.04715026267671014 
-0.021690362288900887 0.04877171768671183 0.014296687117878397 0.04296141939057639 -0.02857342438220688 -0.03555775447654127 -2.158057002668114 1.0811423537898606 -0.8154468720955731 -1.171516131725882 3.942215951597752 0.4298984939255007 -1.1066318056934932 -1.799272071284834 -1.8269315496700766 -0.0010211259084714347 0.5455319835991678 -0.870323492974926 -1.2621814666010645 13.116178692113758 3.091779877204499 -0.08115726132433554 -0.3705429510702203 6.48406811477264 -0.9454932618270064 -15.66061530338842 0.5732681696086062 -4.4028970540460035 1.5495338596775066 -16.062489447512675 72.92708045388326 18.111958713020336 -6.41227990982429 5.287638593070817 -1.9843787615923663 42.26911663887525 20.07229692151536 -0.05580175516651149 -2.962448880314621 4.565569995406139 -0.07797006999790099 -1.566618006678925 -0.016808205011647565 0.04128026408268237 -56.22230397029566 0.010788563280957312 0.01614179026648166 -56.221735550218106 -38.74602898103539 -0.008547798959742801 0.010870188891953514 -0.04129909815081586 0.012758779300163562 -0.03900232485580604 -0.021286845781378794 -0.0179580154096974 0.027333633482751824 -36.718740280822324 -0.014791046332580363 -0.048379654576268354 -0.010352979367984202 -0.0063418653357734224 -0.005640509135682 0.01752095188143483 -0.009644731308762198 0.03419371547491373 -19.77354691384362 0.04736421423147253 0.03306987212606448 0.031687369999086626 -0.025609980088473625 -0.04028413690683847 0.012697549728778876 -0.021287053648424873 -0.03153813125189889 24.0134143779234 -0.009378628140865349 -0.013779346653450372 28.8518186656795 0.029348741422141684 0.03960977029545178 28.890918080168007 0.0102004028412369 0.0014007042062356275 7.9542399793503105 1.6568531176677102 14.394809743228532 -70.11334036203742 19.524386039606572 -9.008569931240947 0.9078889055531136 -18.354656468238595 -67.47291984344427 -6.285510647799372 -1.244533146582009 1.47288237672562 -0.4838123517481302 0.05786413057874014 -8.1102599515099 -0.02773449568926516 0.0490429030999596 44.56404508937197 -0.02029527564260498 0.023441673605892284 44.61685079054684 12.429194435923106 -0.045203016744838384 0.009985604135146828 -0.030973470168049487 -0.014845742203096287 0.00675721939018789 0.040636203879554356 0.03428617150647231 0.021002658313873494 11.105352615317598 -0.044277595845527214 -0.032473697042435794 -0.03466174659008425 -0.015950248968879595 0.04616983506265661 -0.028799795858880452 0.045776572953074184 0.029212487614734935 4.817014805676498 -0.047375344028623055 -0.02191084264947581 0.03649044589499162 -0.005666390821255485 -0.010091443626476834 0.023453074362649665 0.008538974648658612 -0.04131028443743807 -5.581754363102952 0.01754494679149071 -0.002807250202222806 -6.759863086337422 -0.01383385753404118 -0.02177235522666696 -6.694987211194353 -0.007538652990708591 0.03305052701157845 0.04609130283640642 -0.014565428880343794 -0.003610268778031326 8.06211697525218 3.5144449433401452 -19.217825891305566 -0.0013666393535768037 10.395415282974952 -0.025682172395653718 -5.616589819476711 -15.663640664607433 3.165604595008582 -0.030228737765467587 -0.0024690325569732773 0.022031748001117124 -0.03791462417554985 4.706853951025958 0.04749575452863557 12.48352556690068 -8.285629789574934 6.892960381201117 0.014574712556695004 46.35205577815012 -0.012932308521004918 -4.3220707249501835 -14.7223305801269 -3.8566107889487027 0.015035928951567532 0.037033967865627515 0.013817280478904938 -0.012105610174602172 -10.765362583830514 -0.016820423224510418 
